<svg xmlns="http://www.w3.org/2000/svg" xmlns:xlink="http://www.w3.org/1999/xlink" width="168.041" height="168.222" viewBox="0 0 168.041 168.222">
  <defs>
    <filter id="Ellipse_2" x="0" y="0" width="168.041" height="168.222" filterUnits="userSpaceOnUse">
      <feOffset dy="3" input="SourceAlpha"/>
      <feGaussianBlur stdDeviation="22.5" result="blur"/>
      <feFlood flood-color="#2dbb54"/>
      <feComposite operator="in" in2="blur"/>
      <feComposite in="SourceGraphic"/>
    </filter>
    <filter id="Ellipse_3" x="5.819" y="5.548" width="156.507" height="156.507" filterUnits="userSpaceOnUse">
      <feOffset dy="3" input="SourceAlpha"/>
      <feGaussianBlur stdDeviation="22.5" result="blur-2"/>
      <feFlood flood-color="#2dbb54"/>
      <feComposite operator="in" in2="blur-2"/>
      <feComposite in="SourceGraphic"/>
    </filter>
    <filter id="Ellipse_4" x="11.091" y="10.993" width="145.856" height="145.856" filterUnits="userSpaceOnUse">
      <feOffset dy="3" input="SourceAlpha"/>
      <feGaussianBlur stdDeviation="22.5" result="blur-3"/>
      <feFlood flood-color="#2dbb54"/>
      <feComposite operator="in" in2="blur-3"/>
      <feComposite in="SourceGraphic"/>
    </filter>
    <filter id="Path_12" x="67.792" y="64.859" width="32.351" height="32.351" filterUnits="userSpaceOnUse">
      <feOffset input="SourceAlpha"/>
      <feGaussianBlur stdDeviation="4.5" result="blur-4"/>
      <feFlood flood-color="#2dbb54"/>
      <feComposite operator="in" in2="blur-4"/>
      <feComposite in="SourceGraphic"/>
    </filter>
  </defs>
  <g id="Group_10224" data-name="Group 10224" transform="translate(-7567.193 -4687.919)">
    <g id="location-sign" transform="translate(7642.874 4818.037)">
      <path id="Path_2814" data-name="Path 2814" d="M69.037,0c-4.69,0-8.506,3.175-8.506,7.078,0,3.756,7.718,12.533,8.047,12.9l.307.347a.215.215,0,0,0,.307,0l.307-.347c.329-.372,8.047-9.148,8.047-12.9C77.544,3.175,73.728,0,69.037,0Zm0,4.542a2.83,2.83,0,0,1,3.047,2.535c0,1.4-1.367,5.238-3.047,5.238S65.99,8.475,65.99,7.078A2.83,2.83,0,0,1,69.037,4.542Z" transform="translate(-60.531 0)" fill="#d35b30"/>
    </g>
    <line id="Line_50" data-name="Line 50" y2="32.963" transform="translate(7651.549 4783.039)" fill="none" stroke="#d35b30" stroke-width="1" stroke-dasharray="3" opacity="0.56"/>
    <g id="car-2" transform="translate(7658.488 4752.419) rotate(69)">
      <g id="Group_1" data-name="Group 1" transform="translate(0 0)">
        <g transform="matrix(0.36, -0.93, 0.93, 0.36, -92.93, 62.12)" filter="url(#Ellipse_2)">
          <ellipse id="Ellipse_2-2" data-name="Ellipse 2" cx="12.901" cy="12.744" rx="12.901" ry="12.744" transform="translate(91.29 64.5) rotate(69)" fill="#d35b30" opacity="0.25"/>
        </g>
        <g transform="matrix(0.36, -0.93, 0.93, 0.36, -92.93, 62.12)" filter="url(#Ellipse_3)">
          <circle id="Ellipse_3-2" data-name="Ellipse 3" cx="8.323" cy="8.323" r="8.323" transform="translate(88.86 70.05) rotate(69)" fill="#d35b30" opacity="0.5"/>
        </g>
        <g transform="matrix(0.36, -0.93, 0.93, 0.36, -92.93, 62.12)" filter="url(#Ellipse_4)">
          <circle id="Ellipse_4-2" data-name="Ellipse 4" cx="4.202" cy="4.202" r="4.202" transform="translate(86.44 75.49) rotate(69)" fill="#d35b30"/>
        </g>
        <g transform="matrix(0.36, -0.93, 0.93, 0.36, -92.93, 62.12)" filter="url(#Path_12)">
          <path id="Path_12-2" data-name="Path 12" d="M2,4A2,2,0,1,1,4,2,2,2,0,0,1,2,4ZM2,.885A1.116,1.116,0,1,0,3.116,2,1.117,1.117,0,0,0,2,.885Z" transform="translate(81.29 81.96) rotate(-64)" fill="#fff"/>
        </g>
      </g>
    </g>
  </g>
</svg>
